# xmcd
#
# Track frame offsets:
#	182
#	17267
#	33302
#	52767
#	71057
#	83242
#	100627
#	112595
#	128807
#	144050
#
# Disc length: 2155 seconds
#
# Revision: 6
# Processed by: cddbd v1.5.2PL0 Copyright (c) Steve Scherf et al.
# Submitted via: EZCDAudioConverter 7.0.7.1
#
DISCID=6808690a
DTITLE=Neal McCoy - No Doubt About It
DYEAR=1994
DGENRE=Country
TTITLE0=No Doubt About It
TTITLE1=The City Put The Country Back In Me
TTITLE2=Why Now
TTITLE3=Heaven
TTITLE4=Wink
TTITLE5=I Apologize
TTITLE6=Mudslide
TTITLE7=Why Not Tonight
TTITLE8=Small Up And Simple Down
TTITLE9=Something Moving In Me
EXTD=
EXTT0=
EXTT1=
EXTT2=
EXTT3=
EXTT4=
EXTT5=
EXTT6=
EXTT7=
EXTT8=
EXTT9=
PLAYORDER=
